<?xml version="1.0" encoding="UTF-8" standalone="no"?>
<!-- Created with Inkscape (http://www.inkscape.org/) -->

<svg
   width="512"
   height="512"
   viewBox="0 0 135.46666 135.46667"
   version="1.1"
   id="svg1"
   sodipodi:docname="sidebar.svg"
   inkscape:version="1.4.2 (ebf0e940, 2025-05-08)"
   xml:space="preserve"
   xmlns:inkscape="http://www.inkscape.org/namespaces/inkscape"
   xmlns:sodipodi="http://sodipodi.sourceforge.net/DTD/sodipodi-0.dtd"
   xmlns="http://www.w3.org/2000/svg"
   xmlns:svg="http://www.w3.org/2000/svg"><sodipodi:namedview
     id="namedview1"
     pagecolor="#ffffff"
     bordercolor="#000000"
     borderopacity="0.25"
     inkscape:showpageshadow="2"
     inkscape:pageopacity="0.0"
     inkscape:pagecheckerboard="0"
     inkscape:deskcolor="#d1d1d1"
     inkscape:document-units="mm"
     inkscape:zoom="0.81729285"
     inkscape:cx="250.21631"
     inkscape:cy="300.38193"
     inkscape:window-width="1264"
     inkscape:window-height="702"
     inkscape:window-x="-36"
     inkscape:window-y="26"
     inkscape:window-maximized="0"
     inkscape:current-layer="layer1"><inkscape:page
       x="0"
       y="0"
       width="135.46666"
       height="135.46667"
       id="page2"
       margin="0"
       bleed="0" /></sodipodi:namedview><defs
     id="defs1"><inkscape:path-effect
       effect="fillet_chamfer"
       id="path-effect1"
       is_visible="true"
       lpeversion="1"
       nodesatellites_param="F,0,0,1,0,9.7747878,0,1 @ F,0,0,1,0,9.6658943,0,1 @ F,0,0,1,0,9.0014892,0,1 @ F,0,0,1,0,10.959928,0,1 @ F,0,0,1,0,15.06857,0,1 @ F,0,0,1,0,9.3712777,0,1"
       radius="0"
       unit="px"
       method="auto"
       mode="F"
       chamfer_steps="1"
       flexible="false"
       use_knot_distance="true"
       apply_no_radius="true"
       apply_with_radius="true"
       only_selected="false"
       hide_knots="false" /></defs><g
     inkscape:label="Layer 1"
     inkscape:groupmode="layer"
     id="layer1"><path
       id="path1"
       style="fill:none;stroke:#7c7c7c;stroke-width:14.31170192;stroke-linecap:round;stroke-linejoin:round;stroke-dasharray:none"
       transform="matrix(0.80855147,-0.11709473,0.11275882,0.83964262,50.509905,45.414499)"
       d="M 64.424093,73.062484 19.585464,91.143926 A 16.74182,16.74182 8.0379533 0 1 3.008121,88.802933 L -35.679233,58.535768 a 15.591037,15.591037 68.037954 0 1 -5.830928,-14.459624 l 6.687513,-47.356493 a 18.983152,18.983152 128.03795 0 1 11.697102,-14.951183 L 15.603333,-33.84918 a 26.099529,26.099529 8.0379535 0 1 25.843118,3.649472 L 75.587397,-3.4894398 A 16.231529,16.231529 68.037953 0 1 81.657864,11.564196 L 74.856341,59.728031 A 16.930429,16.930429 128.03795 0 1 64.424093,73.062484 Z"
       inkscape:path-effect="#path-effect1"
       inkscape:original-d="M 73.489542,69.406788 10.621006,94.758896 -42.768831,52.9892 -33.290132,-14.132603 29.578404,-39.48471 82.968241,2.2849853 Z" /><g
       style="fill:none;stroke:#7c7c7c;stroke-width:2;stroke-linecap:round;stroke-linejoin:round;stroke-opacity:1"
       id="g1"
       transform="matrix(2.7512654,0,0,2.7449769,38.916948,30.264228)"><circle
         cx="11"
         cy="4"
         r="2"
         id="circle1"
         style="stroke:#7c7c7c;stroke-opacity:1" /><circle
         cx="18"
         cy="8"
         r="2"
         id="circle2"
         style="stroke:#7c7c7c;stroke-opacity:1" /><circle
         cx="20"
         cy="16"
         r="2"
         id="circle3"
         style="stroke:#7c7c7c;stroke-opacity:1" /><path
         d="m 9,10 a 5,5 0 0 1 5,5 v 3.5 A 3.5,3.5 0 0 1 7.16,19.545 Q 6.52,17.48 4.46,16.84 A 3.5,3.5 0 0 1 5.5,10 Z"
         id="path3"
         style="stroke:#7c7c7c;stroke-opacity:1" /></g></g></svg>
